<?xml version="1.0" encoding="utf-8"?>
<!-- Generator: Adobe Illustrator 26.0.1, SVG Export Plug-In . SVG Version: 6.00 Build 0)  -->
<svg version="1.1" id="Layer_1" xmlns="http://www.w3.org/2000/svg" xmlns:xlink="http://www.w3.org/1999/xlink" x="0px" y="0px"
	 viewBox="0 0 551.6 356.2" style="enable-background:new 0 0 551.6 356.2;" xml:space="preserve">
<style type="text/css">
	.st0{fill:#231F20;}
	.st1{fill:#00ADEE;}
</style>
<path class="st0" d="M274.5,112.4c-5,0-10.3,1-13.9,1.9l50.4-56.7h-60.5l-41.8,54l0,0c-10.4,13.5-18.7,25.2-23,39
	c-6.1-8.2-13.9-12.9-19.4-15.4c11.6-7,18.2-19.2,18.2-33.7c0-32.6-31.8-50.2-61.7-50.2c-16.2,0-31.4,5.4-42.9,15.2
	C67.6,76.9,61,91.3,61,107.1v1.4h43.3v-1.4c0-11.5,7.9-20.2,18.4-20.2c10.1,0,17.5,7.3,17.5,17.5c0,11.9-4,18.4-25.1,18.4h-9.3v31.8
	h10c20.1,0,30.3,7.8,30.3,23.1c0,13.3-8.4,21.5-21.9,21.5c-19.3,0-23.3-13.2-23.3-24.2v-1.4H53.3v1.4c0,19.4,7.6,35.8,22.1,47.4
	c13,10.5,30.8,16.3,49.9,16.3c17.7,0,35.2-5.6,48-15.4c7.2-5.5,12.6-12.1,16.3-19.5c3.5,6.6,8.3,12.4,14.2,17.5
	c13.3,11.2,31.9,17.4,52.5,17.4c20.1,0,38.5-5.8,51.8-16.4c14.9-11.9,22.8-29.2,22.8-49.9C330.9,139.3,305.6,112.4,274.5,112.4z
	 M255.8,199c-15.1,0-26.4-11-26.4-25.5c0-14.4,11.6-25.8,26.4-25.8c15.8,0,26.9,10.5,26.9,25.5C282.7,188.1,271.4,199,255.8,199z"/>
<path class="st1" d="M431.4,145.3c-0.2,0.5-0.1,1.1,0.3,1.6l21.7,21.7l15.2,15.9c0.7,0.8,1.9,0.8,2.6,0l4.9-5l32.6-32.6
	c0.4-0.4,0.5-1,0.3-1.6c-0.2-0.5-0.7-0.9-1.3-0.9h-10.5c-0.9-51-43.3-92.2-94.8-91.1c-49.8,1-90.3,41.7-91,91.5
	c-0.8,51.9,41.2,94.3,92.9,94.3c43.9,0,81.6-31,90.8-73.1c0.2-0.7-24.2,24.4-24.2,24.4c-0.3,0.3-0.6,0.4-1,0.4h0
	c-0.4,0-0.8-0.2-1-0.4c0,0-27-28.1-27.3-27.5c-6.5,14.4-21.1,24.1-37.2,24.1c-22.9,0-41.5-19-40.7-42.1c0.7-21.2,18-38.6,39.3-39.4
	c22.7-0.8,41.4,16.9,42.2,39h-12.4C432.1,144.4,431.6,144.7,431.4,145.3"/>
<g>
	<path class="st0" d="M68.8,277.8c7.9,0,13.9,5.8,13.9,13.3c0,8.2-6.2,13.8-14,13.8c-8.2,0-13.9-5.8-13.9-13.6
		C54.8,283.2,61.1,277.8,68.8,277.8z M61.5,291.4c0,4.3,2.9,7.3,7.2,7.3s7.3-3.1,7.3-7.5c0-4.1-3.1-7.2-7.3-7.2
		C64.5,284,61.5,287.1,61.5,291.4z"/>
	<path class="st0" d="M86.4,304v-20.3h6.1v2.6c0,0,1.9-3,5.9-3c4,0,7.3,2.9,7.3,6.7c0,4.8,0,9.1,0,13.9h-6.3c0,0,0-10.5,0-11.9
		c0-1.7-0.5-3.3-3.2-3.3c-2,0-3.6,1.6-3.6,3.6c0,3.8,0,11.6,0,11.6H86.4z"/>
	<path class="st0" d="M119.3,283.3c5.8,0,10,3.9,10,11.1c0,0.5,0,0.8,0,1.2c0,0-13.8,0-14.3,0c0.5,2.4,2.4,3.6,4.8,3.6
		c2,0,3.3-1.4,4.4-2.8c0,0,3.7,2.1,4.8,2.8c-1.8,3.2-5.2,5.3-9.5,5.3c-6.2,0-10.5-3.8-10.5-10.6C109,287.8,113.4,283.3,119.3,283.3z
		 M115.3,291.4c0,0,7,0,7.7,0c-0.7-1.9-1.8-2.9-3.7-2.9C117.2,288.5,116,289.5,115.3,291.4z"/>
	<path class="st0" d="M147.6,278.7l5.1,16.8l5.3-16.8h4.8l5.4,16.7l5.1-16.7h6.7l-8.1,25.3H165l-4.7-15.1l-4.5,15.1h-6.8l-8.2-25.3
		H147.6z"/>
	<path class="st0" d="M192.7,283.3c6.1,0,10.9,4.4,10.9,10.5c0,6.2-4.5,10.8-11.1,10.8c-6.2,0-11-5.1-11-10.7
		C181.6,287.9,186.5,283.3,192.7,283.3z M187.8,294.1c0,2.7,2.1,4.8,4.9,4.8c3,0,4.9-1.9,4.9-5.1c0-2.6-2-4.7-4.9-4.7
		C189.7,289.1,187.8,291.3,187.8,294.1z"/>
	<path class="st0" d="M213.1,294.7c0,3.8,0,9.3,0,9.3h-6.2v-20.3h6c0,0,0,1.9,0,3.2c0.5-1.5,2.4-3.6,4.8-3.6c0.4,0,0.8,0,1.4,0
		c0,2.1,0,4.5,0,6.3c0,0-0.8-0.4-2.1-0.4C214.6,289.3,213.1,290.7,213.1,294.7z"/>
	<path class="st0" d="M221.2,304v-25.3h6.1V304H221.2z"/>
	<path class="st0" d="M246.4,304v-2.1c-1.9,1.8-3.8,2.6-6.5,2.6c-5.7,0-9.2-4.8-9.2-10.5c0-5.5,3.8-10.7,9.7-10.7
		c3.5,0,5.9,2.3,5.9,2.3v-6.9h6.1V304H246.4z M241.6,299c3.2,0,5-2.2,5-5c0-2.8-1.9-5-4.8-5c-3.1,0-4.9,2.3-4.9,4.9
		C236.9,296.7,238.8,299,241.6,299z"/>
	<path class="st0" d="M265,304l4-25.3h6.4l5.3,13.8l5.3-13.8h6.7l4,25.3h-6.7l-2-14.5l-5.7,14.5h-3.1l-5.7-14.6l-1.8,14.6H265z"/>
	<path class="st0" d="M308.3,283.3c2.5,0,4,0.8,5.8,2.5v-2.1h6.1V304h-6.2v-2c0,0-2.2,2.5-6.1,2.5c-5.6,0-9.5-4-9.5-10.5
		C298.5,288.3,302.7,283.3,308.3,283.3z M304.7,293.9c0,2.8,1.8,5.1,4.6,5.1c2.7,0,5-2,5-5c0-3-2.1-5-4.8-5
		C306.6,289,304.7,291.2,304.7,293.9z"/>
	<path class="st0" d="M324.7,304v-20.3h6.1v2.6c0,0,1.9-3,5.9-3c4,0,7.3,2.9,7.3,6.7c0,4.8,0,9.1,0,13.9h-6.3c0,0,0-10.5,0-11.9
		c0-1.7-0.5-3.3-3.2-3.3c-2,0-3.6,1.6-3.6,3.6c0,3.8,0,11.6,0,11.6H324.7z"/>
	<path class="st0" d="M353.2,283.7l4.4,10.5l4.3-10.5h6.4l-11.8,27.4h-6.5l4.6-9.9l-8.2-17.6H353.2z"/>
	<path class="st0" d="M386.4,278.7l6.4,16.5l6.3-16.5h7.2L395.8,304h-6.2l-10.5-25.3H386.4z"/>
	<path class="st0" d="M419.2,283.3c6.1,0,10.9,4.4,10.9,10.5c0,6.2-4.5,10.8-11.1,10.8c-6.2,0-11-5.1-11-10.7
		C408.1,287.9,412.9,283.3,419.2,283.3z M414.2,294.1c0,2.7,2.1,4.8,4.9,4.8c3,0,4.9-1.9,4.9-5.1c0-2.6-2-4.7-4.9-4.7
		C416.1,289.1,414.2,291.3,414.2,294.1z"/>
	<path class="st0" d="M436.5,274.8c2,0,3.7,1.6,3.7,3.7c0,2.1-1.7,3.8-3.8,3.8c-2,0-3.6-1.6-3.6-3.7
		C432.8,276.5,434.4,274.8,436.5,274.8z M433.4,304v-20.3h6.1V304H433.4z"/>
	<path class="st0" d="M458.2,303.3c0,0-3,1.2-4.9,1.2c-6.3,0-10.5-4.5-10.5-10.4c0-5.9,4.3-10.7,10.6-10.7c1.9,0,3,0.2,4.7,1
		c0,0,0,5.1,0,6.4c-0.7-0.7-2.7-1.7-4.5-1.7c-2.7,0-4.7,2.5-4.7,5.2c0,2.7,2.2,4.6,4.9,4.6c1.7,0,3.7-0.9,4.3-1.4V303.3z"/>
	<path class="st0" d="M471,283.3c5.8,0,10,3.9,10,11.1c0,0.5,0,0.8,0,1.2c0,0-13.8,0-14.3,0c0.5,2.4,2.4,3.6,4.8,3.6
		c2,0,3.3-1.4,4.4-2.8c0,0,3.7,2.1,4.8,2.8c-1.8,3.2-5.2,5.3-9.5,5.3c-6.2,0-10.5-3.8-10.5-10.6C460.7,287.8,465.1,283.3,471,283.3z
		 M467,291.4c0,0,7,0,7.7,0c-0.7-1.9-1.8-2.9-3.7-2.9C468.9,288.5,467.7,289.5,467,291.4z"/>
	<path class="st0" d="M491.1,283.3c2.9,0,5.4,1.6,6.6,4.5l-4.7,2c0,0-0.7-1.6-2.5-1.6c-1,0-1.6,0.4-1.6,1.2c0,2.3,9.3,1.4,9.3,8.3
		c0,4.4-3.8,6.7-8.1,6.7c-3.4,0-5.9-1.3-7.5-4.2l4.7-2.4c0,0,1,1.8,2.8,1.8c1,0,2.2-0.5,2.2-1.4c0-2.5-9.1-1.2-9.1-8.3
		C483.3,286,486.6,283.3,491.1,283.3z"/>
</g>
</svg>
