<?xml version="1.0" encoding="UTF-8" standalone="no"?>
<!DOCTYPE svg PUBLIC "-//W3C//DTD SVG 1.1//EN" "http://www.w3.org/Graphics/SVG/1.1/DTD/svg11.dtd">
<svg width="200px" height="80px" viewBox="0 0 200 80" version="1.1" xmlns="http://www.w3.org/2000/svg" xmlns:xlink="http://www.w3.org/1999/xlink" xml:space="preserve" xmlns:serif="http://www.serif.com/" style="fill-rule:evenodd;clip-rule:evenodd;stroke-linejoin:round;stroke-miterlimit:2;">
    <g transform="matrix(1,0,0,1,-1.49513,0.48799)">
        <g transform="matrix(0.402298,0,0,0.402298,101.655,28.1448)">
            <path d="M0,56.159C0,71.025 -11.261,81.815 -26.775,81.815C-41.783,81.815 -53.101,70.882 -53.101,56.383C-53.101,41.997 -41.537,30.727 -26.775,30.727C-11.011,30.727 0,41.185 0,56.159M-8.203,-4.326C-13.168,-4.326 -18.433,-3.309 -22.085,-2.421L28.063,-58.92L-32.168,-58.92L-73.763,-5.118L-73.767,-5.114C-84.072,8.328 -92.353,20.005 -96.694,33.744C-102.743,25.535 -110.522,20.867 -116.053,18.384C-104.521,11.392 -97.973,-0.691 -97.973,-15.215C-97.973,-47.671 -129.598,-65.184 -159.354,-65.184C-175.483,-65.184 -190.66,-59.799 -202.087,-50.021C-214.111,-39.732 -220.734,-25.384 -220.734,-9.621L-220.734,-8.204L-177.625,-8.204L-177.625,-9.621C-177.625,-21.059 -169.771,-29.683 -159.354,-29.683C-149.285,-29.683 -141.978,-22.375 -141.978,-12.306C-141.978,-0.456 -145.959,5.966 -166.961,5.966L-176.209,5.966L-176.209,37.663L-166.289,37.663C-146.296,37.663 -136.159,45.391 -136.159,60.634C-136.159,73.836 -144.532,82.038 -158.011,82.038C-177.182,82.038 -181.206,68.938 -181.206,57.949L-181.206,56.532L-228.341,56.532L-228.341,57.949C-228.341,77.259 -220.74,93.579 -206.361,105.144C-193.374,115.59 -175.726,121.343 -156.669,121.343C-139.034,121.343 -121.625,115.763 -108.906,106.032C-101.782,100.583 -96.322,93.994 -92.686,86.652C-89.184,93.198 -84.467,99.042 -78.563,104.032C-65.354,115.195 -46.803,121.343 -26.327,121.343C-6.285,121.343 12.046,115.532 25.29,104.981C40.167,93.129 48.03,75.937 48.03,55.264C48.03,22.406 22.805,-4.326 -8.203,-4.326" style="fill:rgb(35,31,32);fill-rule:nonzero;"/>
        </g>
        <g transform="matrix(0.402298,0,0,0.402298,161.7,39.4571)">
            <path d="M0,-0.726C-0.222,-0.191 -0.099,0.425 0.311,0.835L22.118,22.642L37.449,38.683C38.17,39.438 39.374,39.446 40.105,38.7L45.062,33.641L77.869,0.835C78.279,0.425 78.402,-0.191 78.18,-0.726C77.958,-1.261 77.436,-1.61 76.857,-1.61L66.267,-1.61C65.317,-52.95 22.756,-94.302 -29.038,-93.271C-79.111,-92.274 -119.824,-51.343 -120.566,-1.266C-121.338,50.896 -79.132,93.576 -27.143,93.576C16.798,93.576 54.679,62.659 64.054,20.474C64.088,20.318 39.779,45.858 39.779,45.858C39.509,46.133 39.14,46.288 38.755,46.288L38.747,46.288C38.359,46.286 37.988,46.126 37.721,45.846C37.721,45.846 10.261,16.917 10.264,16.916C3.732,31.405 -10.961,41.136 -27.143,41.136C-50.207,41.136 -68.883,21.99 -68.112,-1.244C-67.403,-22.607 -49.967,-40.083 -28.605,-40.823C-5.814,-41.613 13.05,-23.848 13.813,-1.61L1.323,-1.61C0.744,-1.61 0.222,-1.261 0,-0.726" style="fill:rgb(0,174,239);fill-rule:nonzero;"/>
        </g>
    </g>
</svg>
